<svg width="46" height="46" viewBox="0 0 46 46" fill="none" xmlns="http://www.w3.org/2000/svg">
<path d="M2 2H6.66667L7.6 6.66667M7.6 6.66667H44L34.6667 25.3333H11.3333M7.6 6.66667L11.3333 25.3333M11.3333 25.3333L5.983 30.6837C4.513 32.1537 5.55367 34.6667 7.63267 34.6667H34.6667M34.6667 34.6667C33.429 34.6667 32.242 35.1583 31.3668 36.0335C30.4917 36.9087 30 38.0957 30 39.3333C30 40.571 30.4917 41.758 31.3668 42.6332C32.242 43.5083 33.429 44 34.6667 44C35.9043 44 37.0913 43.5083 37.9665 42.6332C38.8417 41.758 39.3333 40.571 39.3333 39.3333C39.3333 38.0957 38.8417 36.9087 37.9665 36.0335C37.0913 35.1583 35.9043 34.6667 34.6667 34.6667ZM16 39.3333C16 40.571 15.5083 41.758 14.6332 42.6332C13.758 43.5083 12.571 44 11.3333 44C10.0957 44 8.90867 43.5083 8.0335 42.6332C7.15833 41.758 6.66667 40.571 6.66667 39.3333C6.66667 38.0957 7.15833 36.9087 8.0335 36.0335C8.90867 35.1583 10.0957 34.6667 11.3333 34.6667C12.571 34.6667 13.758 35.1583 14.6332 36.0335C15.5083 36.9087 16 38.0957 16 39.3333Z" stroke="#01A753" stroke-width="4" stroke-linecap="round" stroke-linejoin="round"/>
</svg>
